<?xml version="1.0" encoding="UTF-8"?>
<svg width="621px" height="139px" viewBox="0 0 621 139" version="1.1" xmlns="http://www.w3.org/2000/svg" xmlns:xlink="http://www.w3.org/1999/xlink">
    <!-- Generator: Sketch 49.1 (51147) - http://www.bohemiancoding.com/sketch -->
    <title>Group</title>
    <desc>Created with Sketch.</desc>
    <defs></defs>
    <g id="Page-1" stroke="none" stroke-width="1" fill="none" fill-rule="evenodd">
        <g id="Group" transform="translate(0.000000, -1.000000)" fill="#000000">
            <path d="M0,65.677 C0,65.677 54.422,52.658 72.818,59.039 C91.214,65.419 101.946,60.48 106.545,57.279 C111.144,54.077 144.869,19.739 157.901,24.855 C170.932,29.971 174.766,39.897 180.13,33.516 C185.495,27.136 196.226,19.739 203.891,24.855 C211.557,29.971 208.49,29.082 211.557,23.146 C214.623,17.209 219.413,-4.768 228.803,4.094 C236.129,11.01 239.438,36.619 249.882,17.92 C259.844,0.081 265.979,-1.222 275.176,3.031 C284.375,7.285 292.039,9.412 302.771,7.285 C313.502,5.158 325,-5.476 345.696,14.374 C366.392,34.224 377.124,49.858 387.087,44.523 C397.051,39.189 423.112,17.919 429.245,19.336 C435.377,20.755 448.408,33.629 453.006,33.573 C457.605,33.516 456.839,44.15 498.998,29.262 C498.998,29.262 508.961,22.882 521.993,29.262 C535.024,35.643 547.671,46.986 563.001,41.314 C578.331,35.643 605.569,24.896 615.89,29.262 L620.917,31.389 L620.917,139.152 L0,139.152 L0,65.677 Z" id="mountains" opacity="0.05"></path>
            <path d="M0,87.167837 C0,87.167837 101.181,70.5943214 121.109,67.8786236 C141.038,65.1629258 144.871,75.8682065 161.351,80.9232839 C177.83,85.9775855 204.659,64.5678 220.755,58.026072 C236.852,51.4835681 257.548,39.5880359 275.178,50.2933166 C292.807,60.9985972 330.366,95.4941664 376.357,73.4884793 C422.347,51.4835681 445.343,51.4835681 478.303,62.1888488 C511.262,72.8941295 508.964,74.1627483 526.593,67.8786236 C544.222,61.5944989 546.635,55.1032053 575.649,66.5843996 C604.663,78.064818 620.917,81.8155846 620.917,81.8155846 L620.917,139.1525 L0,139.1525 L0,87.167837 Z" id="hills" opacity="0.1"></path>
            <path d="M613.4,45.406 C610.074,44.356 600.511,70.969 595.523,80.397 L593.64,65.317 L591.065,85.93 C589.935,86.418 588.566,86.192 586.22,85.362 L581.388,50.847 L577.06,81.763 C576.733,81.635 576.401,81.507 576.057,81.374 L568.592,28.054 L561.794,76.61 C555.822,75.177 551.265,75.069 547.398,75.652 L544.775,56.913 L541.966,76.973 C538.591,78.089 535.535,79.568 532.053,80.761 C531.791,80.851 531.536,80.948 531.282,81.045 L528.196,59.005 L524.585,84.798 C522.876,85.977 521.234,87.167 519.454,88.155 L513.484,45.516 L507.228,90.191 C506.095,90.011 504.893,89.752 503.597,89.385 C500.851,88.608 497.823,88.803 494.591,89.653 L491.33,66.355 L487.707,92.229 C486.085,92.985 484.428,93.84 482.746,94.767 L477.187,55.066 L470.609,102.042 C469.012,103.032 467.408,104.021 465.802,104.99 L463.045,85.296 L460.573,102.947 L456.019,70.306 L450.05,113.06 C449.782,113.161 449.513,113.253 449.245,113.348 L447.694,100.926 L446.017,114.345 C445.567,114.463 445.117,114.582 444.671,114.679 C441.933,115.275 439.022,115.841 435.954,116.364 L433.826,99.32 L431.611,117.051 C427.909,117.601 424.013,118.086 419.914,118.47 L415.437,86.491 L410.866,119.135 C408.897,119.241 406.888,119.321 404.846,119.376 L397.865,69.511 L392.004,111.375 L389.199,88.916 L385.429,119.101 C384.424,119.046 383.414,118.984 382.397,118.915 L377.564,84.4 L372.874,117.901 L370.575,99.49 L369.12,111.139 L366.393,89.303 L362.958,116.806 C362.696,116.767 362.438,116.732 362.175,116.692 C361.812,116.636 361.453,116.589 361.091,116.536 L355.355,75.562 L349.802,115.217 C346.481,114.928 343.227,114.732 340.041,114.607 L336.038,82.551 L332.198,113.292 L329.87,94.648 L327.394,114.47 C326.774,114.48 326.157,114.493 325.544,114.508 L321.141,79.249 L316.692,114.869 C316.334,114.889 315.977,114.91 315.622,114.932 L310.858,80.907 L306.384,112.863 L304.259,95.855 L301.736,116.062 C300.471,116.187 299.237,116.313 298.035,116.438 L295.687,97.637 L293.276,116.94 C291.546,117.123 289.892,117.297 288.329,117.451 L285.631,95.855 L283.873,109.938 L281.363,92.016 L277.668,118.412 C276.882,118.496 276.113,118.583 275.355,118.671 L270.571,80.362 L266.604,112.123 L262.395,82.059 L257.244,118.845 L254.806,99.32 L252.27,119.626 C251.679,119.512 251.091,119.38 250.506,119.226 L246.504,87.186 L242.85,116.447 C241.504,116.027 240.246,115.749 238.985,115.588 L236.954,99.32 L234.943,115.424 C234.703,115.432 234.461,115.441 234.214,115.454 L227.252,65.729 L220.454,114.283 L218.585,99.32 L216.687,114.522 L213.387,88.108 L210.849,108.432 L205.885,72.977 L199.911,115.645 C197.8,114.815 195.601,113.78 193.341,112.574 L188.579,78.559 L184.556,107.293 C183.61,106.667 182.66,106.023 181.709,105.363 L174.437,53.422 L169.679,87.399 L165.77,59.473 L161.552,89.598 C160.585,88.771 159.632,87.948 158.694,87.131 L156.552,69.979 L154.836,83.725 C154.05,83.024 153.28,82.332 152.527,81.651 L149.353,56.234 L146.831,76.429 C146.307,75.943 145.799,75.469 145.304,75.008 L140.686,42.025 L137.139,67.362 C136.453,66.738 135.951,66.302 135.672,66.102 C135.384,65.897 134.943,65.759 134.397,65.67 L133.171,55.844 L131.956,65.566 C130.983,65.603 129.866,65.709 128.647,65.867 L123.353,28.054 L117.771,67.919 C112.904,69.02 107.868,70.322 103.742,71.412 L99.627,42.025 L95.208,73.592 C92.234,73.866 86.577,67.077 81.256,60.491 L73.907,8 L68.236,48.503 C65.911,48.494 62.276,48.895 57.863,49.561 L55.933,34.105 L53.924,50.191 C52.583,50.415 51.195,50.657 49.769,50.913 L46.275,25.962 L42.594,52.258 C40.811,52.604 39.004,52.963 37.191,53.329 L31.764,14.566 L26.01,55.661 C11.93,58.678 0,61.503 0,61.503 L0,138.657 L620.918,138.657 L620.918,54.605 C620.918,54.605 617.041,46.556 613.4,45.406" id="trees" opacity="0.2"></path>
        </g>
    </g>
</svg>