<?xml version="1.0" encoding="utf-8"?>
<!-- Generator: Adobe Illustrator 21.0.2, SVG Export Plug-In . SVG Version: 6.00 Build 0)  -->
<svg version="1.1" id="Layer_1" xmlns="http://www.w3.org/2000/svg" xmlns:xlink="http://www.w3.org/1999/xlink" x="0px" y="0px"
	 viewBox="0 0 254.3 65.9" style="enable-background:new 0 0 254.3 65.9;" xml:space="preserve">
<style type="text/css">
	.st0{fill:#FFFFFF;}
</style>
<g>
	<title>new_logo_black</title>
	<desc>Created with Sketch.</desc>
	<path id="Fill-4" class="st0" d="M74,13.8h4.7v28.4c0,3.1,1.2,3.7,2.6,3.7c0.4,0,0.8-0.1,0.8-0.1v4.4c0,0-0.7,0.1-1.5,0.1
		c-2.7,0-6.6-0.8-6.6-7.3V13.8z"/>
	<path id="Fill-6" class="st0" d="M103.8,34.3c-0.2-4.5-2.9-6.7-6.3-6.7c-3.8,0-6.9,2.4-7.6,6.7H103.8z M97.6,23.6
		c7.4,0,11.3,5.5,11.3,12.4c0,0.7-0.2,2.2-0.2,2.2H89.7c0.3,5.8,4.3,8.7,9,8.7c4.5,0,7.8-3.1,7.8-3.1l2.1,3.7c0,0-3.9,3.8-10.1,3.8
		c-8.2,0-13.9-6-13.9-13.8C84.6,29,90.2,23.6,97.6,23.6L97.6,23.6z"/>
	<path id="Fill-8" class="st0" d="M120.6,47.2c4.2,0,7-4.5,7-8.4v-0.8h-1.3c-3.8,0-10.6,0.3-10.6,5
		C115.7,45.1,117.3,47.2,120.6,47.2 M126.4,34.1h1.1v-0.5c0-4.3-2.4-5.8-5.7-5.8c-4,0-7.3,2.6-7.3,2.6l-2.1-3.7c0,0,3.8-3.1,9.8-3.1
		c6.6,0,10.4,3.7,10.4,10.3v16.7h-4.7v-2.5c0-1.2,0.1-2.1,0.1-2.1h-0.1c0,0-2.1,5.2-8.4,5.2c-4.5,0-8.9-2.8-8.9-8
		C110.6,34.5,122,34.1,126.4,34.1"/>
	<path id="Fill-10" class="st0" d="M149.4,46.4c4.1,0,7.4-3.4,7.4-9.2c0-5.6-3-9.2-7.3-9.2c-3.9,0-7.4,2.7-7.4,9.3
		C142.2,41.8,144.7,46.4,149.4,46.4L149.4,46.4z M137.4,24.2h4.5v2.2c0,1-0.1,1.9-0.1,1.9h0.1c0,0,2.2-4.7,8.6-4.7
		c6.9,0,11.3,5.5,11.3,13.5c0,8.2-4.9,13.5-11.6,13.5c-5.6,0-7.9-4.2-7.9-4.2h-0.1c0,0,0.1,0.9,0.1,2.2v11.6h-4.9V24.2z"/>
	<path id="Fill-12" class="st0" d="M166.8,28.7h-3.4v-4h3.4v-1.2c0-8.6,6.7-9.7,10.1-9.7c1.2,0,2,0.2,2,0.2v4.3c0,0-0.5-0.1-1.3-0.1
		c-2,0-5.6,0.6-5.6,5.5v1.1h6.4v4h-6.4v21.7h-5.1V28.7z"/>
	<path id="Fill-17" class="st0" d="M200.7,23.9c-3.1,0-6.2,0-6.6,0c-4.2,0.1-7.3,3-8.6,6.8h-0.1c0,0,0.1-0.9,0.1-2v-4.6h-5v26.2h5.2
		V39.7c0-1.6,0.2-3.2,0.6-4.7c1.2-3.9,4.3-6.2,7.6-6.2c0.2,0,1.2,0,2.5,0C197.5,26.9,199,25.2,200.7,23.9"/>
	<path id="Fill-19" class="st0" d="M211,46c5,0,9.1-4,9.1-9.5c0-5.5-4.1-9.4-9.1-9.4c-5,0-9.1,3.9-9.1,9.4
		C201.9,42.1,206.1,46,211,46 M211,22.8c7.9,0,14.2,5.8,14.2,13.8c0,8-6.4,13.9-14.2,13.9c-7.9,0-14.2-5.8-14.2-13.9
		C196.8,28.6,203.1,22.8,211,22.8"/>
	<path id="Fill-21" class="st0" d="M246.4,36.9c0-6.9-3.3-8.9-7.4-8.9c-4.5,0-7.1,3.4-7.1,8.8c0,5.5,2.9,9.3,7.6,9.3
		C243.1,46,246.4,43.8,246.4,36.9 M238,57.4c4.5,0,8.2-2,8.2-7.5V48c0-0.8,0.1-1.7,0.1-1.7h-0.1c-1.5,2.6-4,4.1-7.7,4.1
		c-7.3,0-11.6-5.9-11.6-13.6c0-7.6,4.2-13.3,11.4-13.3c6.3,0,8.2,3.9,8.2,3.9h0.1c0,0,0-0.4,0-0.8v-2.5h4.8v25.5
		c0,8.8-6.5,12.1-13.1,12.1c-3.1,0-6.4-0.9-8.9-2.2l1.6-4C230.9,55.6,234.1,57.4,238,57.4"/>
	<path id="Fill-14" class="st0" d="M55.4,12.3c-3.8,2.3-8.3,5-10.7,8c-0.5,0.6-1,1.3-1.5,1.9c0,1.3-1,2.4-2.3,2.6
		c-0.1,1-0.1,2.1-0.2,3.1C40.4,32.5,41,39,41.4,43.8c0,1.4-1.2,2.6-2.6,2.6c-1.4,0-2.6-1.2-2.6-2.6c0.7-2.8,1.5-6.1,2.1-9.4
		c-1.3-1.3-1.9-1.8-4.6-1.1l5.7-8.9c-0.1,0-0.2-0.1-0.3-0.1c-1.1,1.2-2.3,2.4-3.4,3.6c-5,5.2-13.7,16.8-13.7,16.8s-1.6,1.9-2.9,1.9
		c-1.4,0-2.6-1.2-2.6-2.6c0-0.9,0.7-2,2.1-3.2c5-3.7,9-7,12.1-9.7c0.5-1.8,0.7-2.9-3-4.4l10.4-3.5c0-0.1-0.1-0.2-0.1-0.3
		c-2.9,0.3-5.9,0.9-8.7,1.5c-2.8,0.6-7.4,1.7-10.2,2.1c-1.4,0-2.6-1.2-2.6-2.6s1.2-2.6,2.6-2.6c2.3,0.2,5.9,0.5,10.7,0.8
		c3.8,0.1,6.5,0.1,8.2-0.1c0.1-1.3,1.2-2.3,2.6-2.3c3.4-2.9,7.3-8,10.2-12.1C45.4,2.8,38.5,0,30.9,0C13.8,0,0,14,0,31.3
		c0,17.3,13.8,31.3,30.9,31.3s30.9-14,30.9-31.3C61.8,24.1,59.4,17.6,55.4,12.3"/>
</g>
</svg>
