<svg xmlns="http://www.w3.org/2000/svg" viewBox="0 0 461.78 339.23"><defs><style>.cls-1{fill:#fffefe;opacity:0.42;}</style></defs><title>Asset 1</title><g id="Layer_2" data-name="Layer 2"><g id="Objects"><path class="cls-1" d="M395.54,46.85a1.68,1.68,0,0,0-1,.83c-3.53,5.2-7.81,9.72-11.05,15.1a1.17,1.17,0,0,0-.24.76.76.76,0,0,0,.75.57,1.58,1.58,0,0,0,.94-.37,8.54,8.54,0,0,0,2-2.21L392,53l2.55-4.25A7.07,7.07,0,0,0,395.54,46.85Z"/><path class="cls-1" d="M272.26,154.53a1.68,1.68,0,0,0-1,.83c-3.53,5.2-7.81,9.72-11.05,15.1a1.17,1.17,0,0,0-.24.76.76.76,0,0,0,.75.57,1.58,1.58,0,0,0,.94-.37,8.53,8.53,0,0,0,2-2.21l5.1-8.49,2.55-4.25A7.08,7.08,0,0,0,272.26,154.53Z"/><path class="cls-1" d="M288.77,314.77a1.68,1.68,0,0,0-1,.83c-3.53,5.2-7.81,9.72-11.05,15.1a1.17,1.17,0,0,0-.24.76.76.76,0,0,0,.75.57,1.58,1.58,0,0,0,.94-.37,8.54,8.54,0,0,0,2-2.21l5.1-8.49,2.55-4.25A7.07,7.07,0,0,0,288.77,314.77Z"/><path class="cls-1" d="M327.68,46.85a1.68,1.68,0,0,0-1,.83c-3.53,5.2-7.81,9.72-11.05,15.1a1.17,1.17,0,0,0-.24.76.76.76,0,0,0,.75.57,1.58,1.58,0,0,0,.94-.37,8.53,8.53,0,0,0,2-2.21L324.1,53l2.55-4.25A7.08,7.08,0,0,0,327.68,46.85Z"/><path class="cls-1" d="M315.35,107.3a1.68,1.68,0,0,0-1,.83c-3.53,5.2-7.81,9.72-11.05,15.1a1.17,1.17,0,0,0-.24.76.76.76,0,0,0,.75.57,1.58,1.58,0,0,0,.94-.37,8.53,8.53,0,0,0,2-2.21l5.1-8.49,2.55-4.25A7.08,7.08,0,0,0,315.35,107.3Z"/><path class="cls-1" d="M161.85,141.62a1.68,1.68,0,0,0-1,.83c-3.53,5.2-7.81,9.72-11.05,15.1a1.17,1.17,0,0,0-.24.76.76.76,0,0,0,.75.57,1.58,1.58,0,0,0,.94-.37,8.53,8.53,0,0,0,2-2.21l5.1-8.49,2.55-4.25A7.07,7.07,0,0,0,161.85,141.62Z"/><path class="cls-1" d="M360.92,165.8a1.68,1.68,0,0,0-1,.83c-3.53,5.2-7.81,9.72-11.05,15.1a1.17,1.17,0,0,0-.24.76.76.76,0,0,0,.75.57,1.58,1.58,0,0,0,.94-.37,8.54,8.54,0,0,0,2-2.21l5.1-8.49,2.55-4.25A7.07,7.07,0,0,0,360.92,165.8Z"/><path class="cls-1" d="M225,46.85a1.68,1.68,0,0,0-1,.83c-3.53,5.2-7.81,9.72-11.05,15.1a1.17,1.17,0,0,0-.24.76.76.76,0,0,0,.75.57,1.58,1.58,0,0,0,.94-.37,8.54,8.54,0,0,0,2-2.21l5.1-8.49,2.55-4.25A7.07,7.07,0,0,0,225,46.85Z"/><path class="cls-1" d="M237.29,107.3a1.68,1.68,0,0,0-1,.83c-3.53,5.2-7.81,9.72-11.05,15.1a1.17,1.17,0,0,0-.24.76.76.76,0,0,0,.75.57,1.58,1.58,0,0,0,.94-.37,8.54,8.54,0,0,0,2-2.21l5.1-8.49,2.55-4.25A7.07,7.07,0,0,0,237.29,107.3Z"/><path class="cls-1" d="M139.1,258.81a1.68,1.68,0,0,0-1,.83c-3.53,5.2-7.81,9.72-11.05,15.1a1.17,1.17,0,0,0-.24.76.76.76,0,0,0,.75.57,1.58,1.58,0,0,0,.94-.37,8.54,8.54,0,0,0,2-2.21l5.1-8.49,2.55-4.25A7.07,7.07,0,0,0,139.1,258.81Z"/><path class="cls-1" d="M125.8,191.68a1.68,1.68,0,0,0-1,.83c-3.53,5.2-7.81,9.72-11.05,15.1a1.17,1.17,0,0,0-.24.76.76.76,0,0,0,.75.57,1.58,1.58,0,0,0,.94-.37,8.54,8.54,0,0,0,2-2.21l5.1-8.49,2.55-4.25A7.07,7.07,0,0,0,125.8,191.68Z"/><path class="cls-1" d="M225,222.39a1.68,1.68,0,0,0-1,.83c-3.53,5.2-7.81,9.72-11.05,15.1a1.17,1.17,0,0,0-.24.76.76.76,0,0,0,.75.57,1.58,1.58,0,0,0,.94-.37,8.54,8.54,0,0,0,2-2.21l5.1-8.49,2.55-4.25A7.07,7.07,0,0,0,225,222.39Z"/><path class="cls-1" d="M32.67,267.43a1.68,1.68,0,0,0-1,.83c-3.53,5.2-7.81,9.72-11.05,15.1a1.17,1.17,0,0,0-.24.76.76.76,0,0,0,.75.57,1.58,1.58,0,0,0,.94-.37,8.54,8.54,0,0,0,2-2.21l5.1-8.49,2.55-4.25A7.07,7.07,0,0,0,32.67,267.43Z"/><path class="cls-1" d="M225,297.06a1.68,1.68,0,0,0-1,.83c-3.53,5.2-7.81,9.72-11.05,15.1a1.17,1.17,0,0,0-.24.76.76.76,0,0,0,.75.57,1.58,1.58,0,0,0,.94-.37,8.54,8.54,0,0,0,2-2.21l5.1-8.49,2.55-4.25A7.07,7.07,0,0,0,225,297.06Z"/><path class="cls-1" d="M294.93,8.63a1.68,1.68,0,0,0-1,.83c-3.53,5.2-7.81,9.72-11.05,15.1a1.17,1.17,0,0,0-.24.76.76.76,0,0,0,.75.57,1.58,1.58,0,0,0,.94-.37,8.54,8.54,0,0,0,2-2.21l5.1-8.49,2.55-4.25A7.07,7.07,0,0,0,294.93,8.63Z"/><path class="cls-1" d="M155.68,55.48a1.68,1.68,0,0,0-1,.83c-3.53,5.2-7.81,9.72-11.05,15.1a1.17,1.17,0,0,0-.24.76.76.76,0,0,0,.75.57,1.58,1.58,0,0,0,.94-.37,8.54,8.54,0,0,0,2-2.21l5.1-8.49,2.55-4.25A7.07,7.07,0,0,0,155.68,55.48Z"/><path class="cls-1" d="M26.5,107.3a1.68,1.68,0,0,0-1,.83c-3.53,5.2-7.81,9.72-11.05,15.1a1.17,1.17,0,0,0-.24.76.76.76,0,0,0,.75.57,1.58,1.58,0,0,0,.94-.37,8.54,8.54,0,0,0,2-2.21l5.1-8.49,2.55-4.25A7.07,7.07,0,0,0,26.5,107.3Z"/><path class="cls-1" d="M367.09,322a1.68,1.68,0,0,0-1,.83c-3.53,5.2-7.81,9.72-11.05,15.1a1.17,1.17,0,0,0-.24.76.76.76,0,0,0,.75.57,1.58,1.58,0,0,0,.94-.37,8.53,8.53,0,0,0,2-2.21l5.1-8.49,2.55-4.25A7.07,7.07,0,0,0,367.09,322Z"/><path class="cls-1" d="M430.58,115.92a1.68,1.68,0,0,0-1,.83c-3.53,5.2-7.81,9.72-11.05,15.1a1.17,1.17,0,0,0-.24.76.76.76,0,0,0,.75.57,1.58,1.58,0,0,0,.94-.37,8.54,8.54,0,0,0,2-2.21l5.1-8.49,2.55-4.25A7.07,7.07,0,0,0,430.58,115.92Z"/><path class="cls-1" d="M332.91,232.58a1.68,1.68,0,0,0-1,.83c-3.53,5.2-7.81,9.72-11.05,15.1a1.17,1.17,0,0,0-.24.76.76.76,0,0,0,.75.57,1.58,1.58,0,0,0,.94-.37,8.54,8.54,0,0,0,2-2.21l5.1-8.49,2.55-4.25A7.07,7.07,0,0,0,332.91,232.58Z"/><path class="cls-1" d="M461.78,306.15a1.68,1.68,0,0,0-1,.83c-3.53,5.2-7.81,9.72-11.05,15.1a1.17,1.17,0,0,0-.24.76.76.76,0,0,0,.75.57,1.58,1.58,0,0,0,.94-.37,8.54,8.54,0,0,0,2-2.21l5.1-8.49,2.55-4.25A7.08,7.08,0,0,0,461.78,306.15Z"/><path class="cls-1" d="M410.92,0a1.68,1.68,0,0,0-1,.83c-3.53,5.2-7.81,9.72-11.05,15.1a1.17,1.17,0,0,0-.24.76.76.76,0,0,0,.75.57,1.58,1.58,0,0,0,.94-.37,8.54,8.54,0,0,0,2-2.21l5.1-8.49,2.55-4.25A7.07,7.07,0,0,0,410.92,0Z"/><path class="cls-1" d="M51.66,165.8a1.68,1.68,0,0,0-1,.83c-3.53,5.2-7.81,9.72-11.05,15.1a1.17,1.17,0,0,0-.24.76.76.76,0,0,0,.75.57,1.58,1.58,0,0,0,.94-.37,8.54,8.54,0,0,0,2-2.21l5.1-8.49,2.55-4.25A7.07,7.07,0,0,0,51.66,165.8Z"/><path class="cls-1" d="M105,1.56a1.68,1.68,0,0,0-1,.83c-3.53,5.2-7.81,9.72-11.05,15.1a1.17,1.17,0,0,0-.24.76.76.76,0,0,0,.75.57,1.58,1.58,0,0,0,.94-.37,8.53,8.53,0,0,0,2-2.21l5.1-8.49L104,3.51A7.08,7.08,0,0,0,105,1.56Z"/><path class="cls-1" d="M430.58,183.06a1.68,1.68,0,0,0-1,.83c-3.53,5.2-7.81,9.72-11.05,15.1a1.17,1.17,0,0,0-.24.76.76.76,0,0,0,.75.57,1.58,1.58,0,0,0,.94-.37,8.53,8.53,0,0,0,2-2.21l5.1-8.49,2.55-4.25A7.08,7.08,0,0,0,430.58,183.06Z"/><path class="cls-1" d="M424.42,231a1.68,1.68,0,0,0-1,.83c-3.53,5.2-7.81,9.72-11.05,15.1a1.17,1.17,0,0,0-.24.76.76.76,0,0,0,.75.57,1.58,1.58,0,0,0,.94-.37,8.54,8.54,0,0,0,2-2.21l5.1-8.49,2.55-4.25A7.07,7.07,0,0,0,424.42,231Z"/><path class="cls-1" d="M377.15,250.18a1.68,1.68,0,0,0-1,.83c-3.53,5.2-7.81,9.72-11.05,15.1a1.17,1.17,0,0,0-.24.76.76.76,0,0,0,.75.57,1.58,1.58,0,0,0,.94-.37,8.53,8.53,0,0,0,2-2.21l5.1-8.49,2.55-4.25A7.08,7.08,0,0,0,377.15,250.18Z"/><path class="cls-1" d="M288.77,214.13a1.68,1.68,0,0,0-1,.83c-3.53,5.2-7.81,9.72-11.05,15.1a1.17,1.17,0,0,0-.24.76.76.76,0,0,0,.75.57,1.58,1.58,0,0,0,.94-.37,8.54,8.54,0,0,0,2-2.21l5.1-8.49,2.55-4.25A7.07,7.07,0,0,0,288.77,214.13Z"/><path class="cls-1" d="M12.33,18.82a1.68,1.68,0,0,0-1,.83C7.77,24.84,3.49,29.36.25,34.74A1.17,1.17,0,0,0,0,35.5a.76.76,0,0,0,.75.57,1.58,1.58,0,0,0,.94-.37,8.54,8.54,0,0,0,2-2.21L8.75,25l2.55-4.25A7.07,7.07,0,0,0,12.33,18.82Z"/><path class="cls-1" d="M389.37,98.67a1.68,1.68,0,0,0-1,.83c-3.53,5.2-7.81,9.72-11.05,15.1a1.17,1.17,0,0,0-.24.76.76.76,0,0,0,.75.57,1.58,1.58,0,0,0,.94-.37,8.54,8.54,0,0,0,2-2.21l5.1-8.49,2.55-4.25A7.07,7.07,0,0,0,389.37,98.67Z"/><path class="cls-1" d="M103.5,60.54a1.68,1.68,0,0,0-1,.83c-3.53,5.2-7.81,9.72-11.05,15.1a1.17,1.17,0,0,0-.24.76.76.76,0,0,0,.75.57,1.58,1.58,0,0,0,.94-.37,8.54,8.54,0,0,0,2-2.21l5.1-8.49,2.55-4.25A7.07,7.07,0,0,0,103.5,60.54Z"/><path class="cls-1" d="M113.47,137.27a1.68,1.68,0,0,0-1,.83c-3.53,5.2-7.81,9.72-11.05,15.1a1.17,1.17,0,0,0-.24.76.76.76,0,0,0,.75.57,1.58,1.58,0,0,0,.94-.37,8.53,8.53,0,0,0,2-2.21l5.1-8.49,2.55-4.25A7.08,7.08,0,0,0,113.47,137.27Z"/></g></g></svg>