<svg xmlns="http://www.w3.org/2000/svg" viewBox="0 0 1152.62 718.09"><defs><style>.cls-1{fill:#fff;opacity:0.22;}</style></defs><title>Asset 1</title><g id="Layer_2" data-name="Layer 2"><g id="ARTBOARD_2" data-name="ARTBOARD 2"><circle class="cls-1" cx="486.2" cy="612.36" r="8.99"/><circle class="cls-1" cx="328.7" cy="626.22" r="8.99"/><circle class="cls-1" cx="730.42" cy="700.11" r="8.99"/><circle class="cls-1" cx="337.69" cy="143.73" r="8.99"/><circle class="cls-1" cx="639.69" cy="31.09" r="8.99"/><circle class="cls-1" cx="569.52" cy="21.35" r="8.99"/><circle class="cls-1" cx="551.81" cy="148.6" r="4.12"/><circle class="cls-1" cx="434.55" cy="100.56" r="4.12"/><circle class="cls-1" cx="422.58" cy="31.09" r="4.12"/><circle class="cls-1" cx="46.98" cy="13.11" r="4.12"/><circle class="cls-1" cx="725.55" cy="108.8" r="4.12"/><circle class="cls-1" cx="729.67" cy="31.09" r="4.12"/><circle class="cls-1" cx="525.4" cy="50.12" r="4.12"/><circle class="cls-1" cx="280.16" cy="152.72" r="4.12"/><circle class="cls-1" cx="201.21" cy="187.87" r="4.12"/><circle class="cls-1" cx="37.5" cy="170.7" r="4.12"/><circle class="cls-1" cx="69.27" cy="50.12" r="4.12"/><circle class="cls-1" cx="247.65" cy="17.23" r="4.12"/><circle class="cls-1" cx="127.25" cy="352.19" r="4.12"/><circle class="cls-1" cx="648.67" cy="58.35" r="4.12"/><circle class="cls-1" cx="302.43" cy="54.23" r="4.12"/><circle class="cls-1" cx="320.43" cy="121.91" r="4.12"/><circle class="cls-1" cx="816.7" cy="50.12" r="4.12"/><circle class="cls-1" cx="876.73" cy="126.78" r="4.12"/><circle class="cls-1" cx="940.65" cy="338.93" r="4.12"/><circle class="cls-1" cx="896.13" cy="198.16" r="4.12"/><circle class="cls-1" cx="945.53" cy="246.86" r="4.12"/><circle class="cls-1" cx="230.43" cy="415.3" r="4.12"/><circle class="cls-1" cx="189.32" cy="290.03" r="4.12"/><circle class="cls-1" cx="251.77" cy="466.85" r="4.12"/><circle class="cls-1" cx="109.27" cy="518.37" r="4.12"/><circle class="cls-1" cx="149.16" cy="397.69" r="4.12"/><circle class="cls-1" cx="29.26" cy="596" r="4.12"/><circle class="cls-1" cx="118.26" cy="565.58" r="4.12"/><circle class="cls-1" cx="430.43" cy="621.35" r="4.12"/><circle class="cls-1" cx="239.42" cy="658.96" r="4.12"/><circle class="cls-1" cx="86.15" cy="643.45" r="4.12"/><circle class="cls-1" cx="346.67" cy="603.37" r="4.12"/><circle class="cls-1" cx="461.55" cy="630.34" r="4.12"/><circle class="cls-1" cx="642.82" cy="603.37" r="4.12"/><circle class="cls-1" cx="493.54" cy="685.11" r="4.12"/><circle class="cls-1" cx="695.94" cy="178.71" r="4.12"/><circle class="cls-1" cx="748.43" cy="556.35" r="4.12"/><circle class="cls-1" cx="834.68" cy="639.33" r="4.12"/><circle class="cls-1" cx="892.01" cy="584.35" r="4.12"/><circle class="cls-1" cx="842.92" cy="580.23" r="4.12"/><circle class="cls-1" cx="769.52" cy="161.71" r="8.99"/><circle class="cls-1" cx="602.44" cy="157.59" r="8.99"/><circle class="cls-1" cx="916.27" cy="364.69" r="8.99"/><circle class="cls-1" cx="221.44" cy="263.02" r="8.99"/><circle class="cls-1" cx="33.38" cy="476.09" r="8.99"/><circle class="cls-1" cx="162.27" cy="174.59" r="8.99"/><circle class="cls-1" cx="221.44" cy="67.34" r="8.99"/><circle class="cls-1" cx="69.27" cy="194.04" r="8.99"/><circle class="cls-1" cx="383.82" cy="22.1" r="8.99"/><circle class="cls-1" cx="171.25" cy="22.1" r="8.99"/><circle class="cls-1" cx="158.15" cy="104.68" r="4.12"/><circle class="cls-1" cx="77.16" cy="117.79" r="8.99"/><circle class="cls-1" cx="26.97" cy="72.55" r="8.99"/><circle class="cls-1" cx="33.38" cy="401.55" r="4.12" transform="translate(-344.23 260.94) rotate(-64.82)"/><circle class="cls-1" cx="55.97" cy="322.68" r="8.99" transform="translate(-259.87 236.09) rotate(-64.83)"/><circle class="cls-1" cx="8.99" cy="237.35" r="8.99" transform="translate(-209.65 144.54) rotate(-64.83)"/><circle class="cls-1" cx="118.26" cy="617.23" r="8.99" transform="translate(-490.66 461.74) rotate(-64.83)"/><circle class="cls-1" cx="118.26" cy="296.51" r="8.99" transform="matrix(0.43, -0.91, 0.91, 0.43, -200.39, 277.41)"/><circle class="cls-1" cx="532.29" cy="290.7" r="8.99"/><circle class="cls-1" cx="474.77" cy="299.69" r="4.12"/><circle class="cls-1" cx="395.81" cy="334.85" r="4.12"/><circle class="cls-1" cx="515.03" cy="268.89" r="4.12"/><circle class="cls-1" cx="383.92" cy="437.01" r="4.12"/><circle class="cls-1" cx="416.04" cy="410" r="8.99"/><circle class="cls-1" cx="356.87" cy="321.57" r="8.99"/><circle class="cls-1" cx="416.04" cy="214.32" r="8.99"/><circle class="cls-1" cx="352.75" cy="251.66" r="4.12"/><circle class="cls-1" cx="312.87" cy="443.49" r="8.99" transform="matrix(0.43, -0.91, 0.91, 0.43, -221.58, 537.99)"/><circle class="cls-1" cx="822.15" cy="377.1" r="8.99"/><circle class="cls-1" cx="764.63" cy="386.09" r="4.12"/><circle class="cls-1" cx="685.67" cy="421.24" r="4.12"/><circle class="cls-1" cx="804.89" cy="355.28" r="4.12"/><circle class="cls-1" cx="673.78" cy="523.4" r="4.12"/><circle class="cls-1" cx="705.9" cy="496.39" r="8.99"/><circle class="cls-1" cx="646.73" cy="407.96" r="8.99"/><circle class="cls-1" cx="705.9" cy="300.71" r="8.99"/><circle class="cls-1" cx="642.61" cy="338.05" r="4.12"/><circle class="cls-1" cx="602.73" cy="529.88" r="8.99" transform="matrix(0.43, -0.91, 0.91, 0.43, -133.2, 849.97)"/><circle class="cls-1" cx="176.21" cy="476.09" r="8.99" transform="translate(-329.62 433.05) rotate(-64.83)"/><circle class="cls-1" cx="462.73" cy="157.59" r="8.99"/><circle class="cls-1" cx="931.66" cy="31.09" r="8.99"/><circle class="cls-1" cx="936.54" cy="523.24" r="8.99"/><circle class="cls-1" cx="821.58" cy="117.79" r="8.99"/><circle class="cls-1" cx="770.32" cy="13.11" r="8.99"/><circle class="cls-1" cx="909.23" cy="134.74" r="8.99"/><circle class="cls-1" cx="990.14" cy="256.72" r="4.12" transform="translate(26.51 599.79) rotate(-34.13)"/><circle class="cls-1" cx="1104.02" cy="237.35" r="4.12" transform="translate(56.98 660.32) rotate(-34.13)"/><circle class="cls-1" cx="1130.24" cy="376.85" r="4.12" transform="translate(-16.78 699.06) rotate(-34.13)"/><circle class="cls-1" cx="1007.2" cy="643.45" r="4.12" transform="translate(-187.55 675.99) rotate(-34.13)"/><circle class="cls-1" cx="1074.67" cy="431.46" r="4.12" transform="translate(-56.98 677.33) rotate(-34.13)"/><circle class="cls-1" cx="1108.14" cy="104.68" r="4.12" transform="translate(132.15 639.83) rotate(-34.13)"/><circle class="cls-1" cx="1015.43" cy="567.12" r="4.12" transform="translate(-143.31 667.35) rotate(-34.13)"/><circle class="cls-1" cx="1116.38" cy="635.21" r="4.12" transform="translate(-164.13 735.72) rotate(-34.13)"/><circle class="cls-1" cx="1023.67" cy="364.69" r="4.12" transform="translate(-28.31 637.16) rotate(-34.13)"/><circle class="cls-1" cx="1070.55" cy="510.34" r="4.12" transform="translate(-101.95 688.61) rotate(-34.13)"/><circle class="cls-1" cx="1019.55" cy="143.99" r="4.12" transform="translate(94.82 596.86) rotate(-34.13)"/><circle class="cls-1" cx="1011.32" cy="59.11" r="4.12" transform="translate(141.03 577.62) rotate(-34.13)"/><circle class="cls-1" cx="1108.14" cy="4.12" r="4.12" transform="translate(188.56 622.47) rotate(-34.13)"/><circle class="cls-1" cx="892.01" cy="46" r="4.12" transform="translate(127.83 508.42) rotate(-34.13)"/><circle class="cls-1" cx="1112.26" cy="173.77" r="4.12" transform="translate(94.07 653.99) rotate(-34.13)"/><circle class="cls-1" cx="1104.04" cy="63.74" r="8.99" transform="translate(154.39 630.42) rotate(-34.13)"/><circle class="cls-1" cx="1061.56" cy="197.27" r="8.99" transform="translate(72.16 629.6) rotate(-34.13)"/><circle class="cls-1" cx="990.14" cy="363.08" r="8.99" transform="translate(-33.18 618.09) rotate(-34.13)"/><circle class="cls-1" cx="1061.56" cy="299.02" r="8.99" transform="translate(15.07 647.13) rotate(-34.13)"/><circle class="cls-1" cx="1121.25" cy="427.95" r="8.99" transform="translate(-46.98 702.85) rotate(-34.13)"/><circle class="cls-1" cx="999.13" cy="461.89" r="8.99" transform="translate(-87.06 640.18) rotate(-34.13)"/><circle class="cls-1" cx="1095.05" cy="576.12" r="8.99" transform="translate(-134.63 713.67) rotate(-34.13)"/><circle class="cls-1" cx="1038.21" cy="50.12" r="8.99" transform="translate(150.7 591.15) rotate(-34.13)"/><circle class="cls-1" cx="990.14" cy="166.58" r="8.99" transform="translate(77.06 584.21) rotate(-34.13)"/><circle class="cls-1" cx="620.56" cy="258.35" r="8.99" transform="translate(-38.08 392.67) rotate(-34.13)"/><circle class="cls-1" cx="1143.63" cy="162.12" r="8.99" transform="translate(106.01 669.58) rotate(-34.13)"/><circle class="cls-1" cx="492.8" cy="432.72" r="4.12" transform="translate(-157.92 351.06) rotate(-34.13)"/><circle class="cls-1" cx="496.91" cy="501.81" r="4.12" transform="translate(-195.97 365.23) rotate(-34.13)"/><circle class="cls-1" cx="488.69" cy="391.77" r="8.99" transform="translate(-135.64 341.67) rotate(-34.13)"/><circle class="cls-1" cx="528.28" cy="490.16" r="8.99" transform="translate(-184.03 380.82) rotate(-34.13)"/><circle class="cls-1" cx="668.61" cy="709.1" r="8.99"/><circle class="cls-1" cx="721.43" cy="630.34" r="8.99"/><circle class="cls-1" cx="916.27" cy="621.35" r="8.99"/><circle class="cls-1" cx="489.43" cy="54.23" r="8.99"/><circle class="cls-1" cx="230.43" cy="355.58" r="8.99"/><circle class="cls-1" cx="226.31" cy="542.68" r="8.99"/></g></g></svg>